<?xml version="1.0" encoding="utf-8" ?>
<svg baseProfile="full" height="57.5mm" version="1.1" viewBox="0,0,306.20000000000005,57.5" width="306.20000000000005mm" xmlns="http://www.w3.org/2000/svg" xmlns:ev="http://www.w3.org/2001/xml-events" xmlns:xlink="http://www.w3.org/1999/xlink"><defs /><rect fill="#FFFFFF" height="57.5" width="306.20000000000005" x="0" y="0" /><text fill="#586e75" style="font-size:6px; font-family:Arial; font-weight:bold;" x="10" y="10">微信读书热力图</text><text fill="#586e75" style="font-size:3px; font-family:Arial;" x="10" y="14.4">2024: 490 hours</text><text fill="#586e75" style="font-size:2.5px; font-family:Arial" x="10" y="18.3">Jan</text><rect fill="#5AB6FD" height="4" rx="1" ry="1" width="4" x="10" y="19.7"><title>2024-01-01 163.2 mins</title></rect><rect fill="#7bc4fc" height="4" rx="1" ry="1" width="4" x="10" y="25.1"><title>2024-01-02 57.07 mins</title></rect><rect fill="#74c1fc" height="4" rx="1" ry="1" width="4" x="10" y="30.5"><title>2024-01-03 127.2 mins</title></rect><rect fill="#a2d4fa" height="4" rx="1" ry="1" width="4" x="10" y="35.9"><title>2024-01-04 25.05 mins</title></rect><rect fill="#7bc4fc" height="4" rx="1" ry="1" width="4" x="10" y="41.300000000000004"><title>2024-01-05 57.15 mins</title></rect><rect fill="#7ac3fc" height="4" rx="1" ry="1" width="4" x="10" y="46.699999999999996"><title>2024-01-06 73.93 mins</title></rect><rect fill="#5AB6FD" height="4" rx="1" ry="1" width="4" x="10" y="52.1"><title>2024-01-07 171.77 mins</title></rect><rect fill="#5AB6FD" height="4" rx="1" ry="1" width="4" x="15.4" y="19.7"><title>2024-01-08 189.2 mins</title></rect><rect fill="#77c2fc" height="4" rx="1" ry="1" width="4" x="15.4" y="25.1"><title>2024-01-09 101.52 mins</title></rect><rect fill="#79c3fc" height="4" rx="1" ry="1" width="4" x="15.4" y="30.5"><title>2024-01-10 81.82 mins</title></rect><rect fill="#76c1fc" height="4" rx="1" ry="1" width="4" x="15.4" y="35.9"><title>2024-01-11 110.25 mins</title></rect><rect fill="#5AB6FD" height="4" rx="1" ry="1" width="4" x="15.4" y="41.300000000000004"><title>2024-01-12 223.02 mins</title></rect><rect fill="#5AB6FD" height="4" rx="1" ry="1" width="4" x="15.4" y="46.699999999999996"><title>2024-01-13 216.05 mins</title></rect><rect fill="#5AB6FD" height="4" rx="1" ry="1" width="4" x="15.4" y="52.1"><title>2024-01-14 183.9 mins</title></rect><rect fill="#5AB6FD" height="4" rx="1" ry="1" width="4" x="20.8" y="19.7"><title>2024-01-15 217.67 mins</title></rect><rect fill="#5AB6FD" height="4" rx="1" ry="1" width="4" x="20.8" y="25.1"><title>2024-01-16 249.15 mins</title></rect><rect fill="#5AB6FD" height="4" rx="1" ry="1" width="4" x="20.8" y="30.5"><title>2024-01-17 226.47 mins</title></rect><rect fill="#5AB6FD" height="4" rx="1" ry="1" width="4" x="20.8" y="35.9"><title>2024-01-18 273.82 mins</title></rect><rect fill="#5AB6FD" height="4" rx="1" ry="1" width="4" x="20.8" y="41.300000000000004"><title>2024-01-19 250.05 mins</title></rect><rect fill="#5AB6FD" height="4" rx="1" ry="1" width="4" x="20.8" y="46.699999999999996"><title>2024-01-20 206.03 mins</title></rect><rect fill="#5AB6FD" height="4" rx="1" ry="1" width="4" x="20.8" y="52.1"><title>2024-01-21 222.85 mins</title></rect><rect fill="#5AB6FD" height="4" rx="1" ry="1" width="4" x="26.200000000000003" y="19.7"><title>2024-01-22 187.68 mins</title></rect><rect fill="#5AB6FD" height="4" rx="1" ry="1" width="4" x="26.200000000000003" y="25.1"><title>2024-01-23 220.72 mins</title></rect><rect fill="#5AB6FD" height="4" rx="1" ry="1" width="4" x="26.200000000000003" y="30.5"><title>2024-01-24 219.22 mins</title></rect><rect fill="#5AB6FD" height="4" rx="1" ry="1" width="4" x="26.200000000000003" y="35.9"><title>2024-01-25 373.0 mins</title></rect><rect fill="#5AB6FD" height="4" rx="1" ry="1" width="4" x="26.200000000000003" y="41.300000000000004"><title>2024-01-26 186.87 mins</title></rect><rect fill="#5AB6FD" height="4" rx="1" ry="1" width="4" x="26.200000000000003" y="46.699999999999996"><title>2024-01-27 201.73 mins</title></rect><rect fill="#5AB6FD" height="4" rx="1" ry="1" width="4" x="26.200000000000003" y="52.1"><title>2024-01-28 233.02 mins</title></rect><rect fill="#5AB6FD" height="4" rx="1" ry="1" width="4" x="31.6" y="19.7"><title>2024-01-29 196.95 mins</title></rect><rect fill="#77c2fc" height="4" rx="1" ry="1" width="4" x="31.6" y="25.1"><title>2024-01-30 104.05 mins</title></rect><rect fill="#7bc4fc" height="4" rx="1" ry="1" width="4" x="31.6" y="30.5"><title>2024-01-31 58.63 mins</title></rect><rect fill="#74c0fc" height="4" rx="1" ry="1" width="4" x="31.6" y="35.9"><title>2024-02-01 135.0 mins</title></rect><rect fill="#5AB6FD" height="4" rx="1" ry="1" width="4" x="31.6" y="41.300000000000004"><title>2024-02-02 191.32 mins</title></rect><rect fill="#5AB6FD" height="4" rx="1" ry="1" width="4" x="31.6" y="46.699999999999996"><title>2024-02-03 250.65 mins</title></rect><rect fill="#76c2fc" height="4" rx="1" ry="1" width="4" x="31.6" y="52.1"><title>2024-02-04 106.57 mins</title></rect><text fill="#586e75" style="font-size:2.5px; font-family:Arial" x="37.0" y="18.3">Feb</text><rect fill="#5AB6FD" height="4" rx="1" ry="1" width="4" x="37.0" y="19.7"><title>2024-02-05 151.73 mins</title></rect><rect fill="#78c2fc" height="4" rx="1" ry="1" width="4" x="37.0" y="25.1"><title>2024-02-06 89.82 mins</title></rect><rect fill="#79c3fc" height="4" rx="1" ry="1" width="4" x="37.0" y="30.5"><title>2024-02-07 78.83 mins</title></rect><rect fill="#78c2fc" height="4" rx="1" ry="1" width="4" x="37.0" y="35.9"><title>2024-02-08 88.87 mins</title></rect><rect fill="#7bc3fc" height="4" rx="1" ry="1" width="4" x="37.0" y="41.300000000000004"><title>2024-02-09 61.0 mins</title></rect><rect fill="#a1d4fa" height="4" rx="1" ry="1" width="4" x="37.0" y="46.699999999999996"><title>2024-02-10 29.33 mins</title></rect><rect fill="#9dd1fa" height="4" rx="1" ry="1" width="4" x="37.0" y="52.1"><title>2024-02-11 55.15 mins</title></rect><rect fill="#7bc3fc" height="4" rx="1" ry="1" width="4" x="42.4" y="19.7"><title>2024-02-12 61.13 mins</title></rect><rect fill="#5AB6FD" height="4" rx="1" ry="1" width="4" x="42.4" y="25.1"><title>2024-02-13 149.38 mins</title></rect><rect fill="#a0d3fa" height="4" rx="1" ry="1" width="4" x="42.4" y="30.5"><title>2024-02-14 36.93 mins</title></rect><rect fill="#a4d5fa" height="4" rx="1" ry="1" width="4" x="42.4" y="35.9"><title>2024-02-15 15.42 mins</title></rect><rect fill="#75c1fc" height="4" rx="1" ry="1" width="4" x="42.4" y="41.300000000000004"><title>2024-02-16 117.47 mins</title></rect><rect fill="#78c2fc" height="4" rx="1" ry="1" width="4" x="42.4" y="46.699999999999996"><title>2024-02-17 93.4 mins</title></rect><rect fill="#74c1fc" height="4" rx="1" ry="1" width="4" x="42.4" y="52.1"><title>2024-02-18 132.83 mins</title></rect><rect fill="#9dd2fa" height="4" rx="1" ry="1" width="4" x="47.8" y="19.7"><title>2024-02-19 50.2 mins</title></rect><rect fill="#77c2fc" height="4" rx="1" ry="1" width="4" x="47.8" y="25.1"><title>2024-02-20 102.9 mins</title></rect><rect fill="#78c2fc" height="4" rx="1" ry="1" width="4" x="47.8" y="30.5"><title>2024-02-21 94.82 mins</title></rect><rect fill="#77c2fc" height="4" rx="1" ry="1" width="4" x="47.8" y="35.9"><title>2024-02-22 96.82 mins</title></rect><rect fill="#74c0fc" height="4" rx="1" ry="1" width="4" x="47.8" y="41.300000000000004"><title>2024-02-23 134.13 mins</title></rect><rect fill="#74c1fc" height="4" rx="1" ry="1" width="4" x="47.8" y="46.699999999999996"><title>2024-02-24 132.17 mins</title></rect><rect fill="#75c1fc" height="4" rx="1" ry="1" width="4" x="47.8" y="52.1"><title>2024-02-25 121.72 mins</title></rect><rect fill="#5AB6FD" height="4" rx="1" ry="1" width="4" x="53.199999999999996" y="19.7"><title>2024-02-26 213.72 mins</title></rect><rect fill="#5AB6FD" height="4" rx="1" ry="1" width="4" x="53.199999999999996" y="25.1"><title>2024-02-27 218.13 mins</title></rect><rect fill="#74c1fc" height="4" rx="1" ry="1" width="4" x="53.199999999999996" y="30.5"><title>2024-02-28 130.13 mins</title></rect><rect fill="#75c1fc" height="4" rx="1" ry="1" width="4" x="53.199999999999996" y="35.9"><title>2024-02-29 120.83 mins</title></rect><rect fill="#5AB6FD" height="4" rx="1" ry="1" width="4" x="53.199999999999996" y="41.300000000000004"><title>2024-03-01 262.13 mins</title></rect><rect fill="#74c1fc" height="4" rx="1" ry="1" width="4" x="53.199999999999996" y="46.699999999999996"><title>2024-03-02 127.8 mins</title></rect><rect fill="#5AB6FD" height="4" rx="1" ry="1" width="4" x="53.199999999999996" y="52.1"><title>2024-03-03 245.73 mins</title></rect><text fill="#586e75" style="font-size:2.5px; font-family:Arial" x="58.599999999999994" y="18.3">Mar</text><rect fill="#5AB6FD" height="4" rx="1" ry="1" width="4" x="58.599999999999994" y="19.7"><title>2024-03-04 181.1 mins</title></rect><rect fill="#5AB6FD" height="4" rx="1" ry="1" width="4" x="58.599999999999994" y="25.1"><title>2024-03-05 185.48 mins</title></rect><rect fill="#5AB6FD" height="4" rx="1" ry="1" width="4" x="58.599999999999994" y="30.5"><title>2024-03-06 194.87 mins</title></rect><rect fill="#5AB6FD" height="4" rx="1" ry="1" width="4" x="58.599999999999994" y="35.9"><title>2024-03-07 193.77 mins</title></rect><rect fill="#a0d3fa" height="4" rx="1" ry="1" width="4" x="58.599999999999994" y="41.300000000000004"><title>2024-03-08 37.53 mins</title></rect><rect fill="#75c1fc" height="4" rx="1" ry="1" width="4" x="58.599999999999994" y="46.699999999999996"><title>2024-03-09 116.88 mins</title></rect><rect fill="#73c0fc" height="4" rx="1" ry="1" width="4" x="58.599999999999994" y="52.1"><title>2024-03-10 140.22 mins</title></rect><rect fill="#78c2fc" height="4" rx="1" ry="1" width="4" x="63.99999999999999" y="19.7"><title>2024-03-11 88.22 mins</title></rect><rect fill="#5AB6FD" height="4" rx="1" ry="1" width="4" x="63.99999999999999" y="25.1"><title>2024-03-12 187.03 mins</title></rect><rect fill="#5AB6FD" height="4" rx="1" ry="1" width="4" x="63.99999999999999" y="30.5"><title>2024-03-13 220.87 mins</title></rect><rect fill="#5AB6FD" height="4" rx="1" ry="1" width="4" x="63.99999999999999" y="35.9"><title>2024-03-14 193.7 mins</title></rect><rect fill="#76c1fc" height="4" rx="1" ry="1" width="4" x="63.99999999999999" y="41.300000000000004"><title>2024-03-15 110.93 mins</title></rect><rect fill="#5AB6FD" height="4" rx="1" ry="1" width="4" x="63.99999999999999" y="46.699999999999996"><title>2024-03-16 202.88 mins</title></rect><rect fill="#73c0fc" height="4" rx="1" ry="1" width="4" x="63.99999999999999" y="52.1"><title>2024-03-17 141.37 mins</title></rect><rect fill="#5AB6FD" height="4" rx="1" ry="1" width="4" x="69.39999999999999" y="19.7"><title>2024-03-18 279.48 mins</title></rect><rect fill="#75c1fc" height="4" rx="1" ry="1" width="4" x="69.39999999999999" y="25.1"><title>2024-03-19 121.75 mins</title></rect><rect fill="#79c3fc" height="4" rx="1" ry="1" width="4" x="69.39999999999999" y="30.5"><title>2024-03-20 77.95 mins</title></rect><rect fill="#5AB6FD" height="4" rx="1" ry="1" width="4" x="69.39999999999999" y="35.9"><title>2024-03-21 208.65 mins</title></rect><rect fill="#5AB6FD" height="4" rx="1" ry="1" width="4" x="69.39999999999999" y="41.300000000000004"><title>2024-03-22 157.25 mins</title></rect><rect fill="#5AB6FD" height="4" rx="1" ry="1" width="4" x="69.39999999999999" y="46.699999999999996"><title>2024-03-23 183.93 mins</title></rect><rect fill="#5AB6FD" height="4" rx="1" ry="1" width="4" x="69.39999999999999" y="52.1"><title>2024-03-24 245.22 mins</title></rect><rect fill="#5AB6FD" height="4" rx="1" ry="1" width="4" x="74.8" y="19.7"><title>2024-03-25 187.92 mins</title></rect><rect fill="#9ed2fa" height="4" rx="1" ry="1" width="4" x="74.8" y="25.1"><title>2024-03-26 48.58 mins</title></rect><rect fill="#73c0fc" height="4" rx="1" ry="1" width="4" x="74.8" y="30.5"><title>2024-03-27 141.93 mins</title></rect><rect fill="#75c1fc" height="4" rx="1" ry="1" width="4" x="74.8" y="35.9"><title>2024-03-28 122.97 mins</title></rect><rect fill="#79c3fc" height="4" rx="1" ry="1" width="4" x="74.8" y="41.300000000000004"><title>2024-03-29 84.48 mins</title></rect><rect fill="#5AB6FD" height="4" rx="1" ry="1" width="4" x="74.8" y="46.699999999999996"><title>2024-03-30 235.32 mins</title></rect><rect fill="#5AB6FD" height="4" rx="1" ry="1" width="4" x="74.8" y="52.1"><title>2024-03-31 193.55 mins</title></rect><text fill="#586e75" style="font-size:2.5px; font-family:Arial" x="80.2" y="18.3">Apr</text><rect fill="#74c1fc" height="4" rx="1" ry="1" width="4" x="80.2" y="19.7"><title>2024-04-01 130.68 mins</title></rect><rect fill="#5AB6FD" height="4" rx="1" ry="1" width="4" x="80.2" y="25.1"><title>2024-04-02 194.08 mins</title></rect><rect fill="#a1d3fa" height="4" rx="1" ry="1" width="4" x="80.2" y="30.5"><title>2024-04-03 34.1 mins</title></rect><rect fill="#9dd2fa" height="4" rx="1" ry="1" width="4" x="80.2" y="35.9"><title>2024-04-04 52.9 mins</title></rect><rect fill="#a0d3fa" height="4" rx="1" ry="1" width="4" x="80.2" y="41.300000000000004"><title>2024-04-05 36.73 mins</title></rect><rect fill="#79c3fc" height="4" rx="1" ry="1" width="4" x="80.2" y="46.699999999999996"><title>2024-04-06 77.42 mins</title></rect><rect fill="#78c2fc" height="4" rx="1" ry="1" width="4" x="80.2" y="52.1"><title>2024-04-07 86.65 mins</title></rect><rect fill="#77c2fc" height="4" rx="1" ry="1" width="4" x="85.60000000000001" y="19.7"><title>2024-04-08 103.82 mins</title></rect><rect fill="#a6d5fa" height="4" rx="1" ry="1" width="4" x="85.60000000000001" y="25.1"><title>2024-04-09 6.08 mins</title></rect><rect fill="#9dd2fa" height="4" rx="1" ry="1" width="4" x="85.60000000000001" y="30.5"><title>2024-04-10 51.33 mins</title></rect><rect fill="#a1d4fa" height="4" rx="1" ry="1" width="4" x="85.60000000000001" y="35.9"><title>2024-04-11 29.67 mins</title></rect><rect fill="#5AB6FD" height="4" rx="1" ry="1" width="4" x="85.60000000000001" y="41.300000000000004"><title>2024-04-12 251.35 mins</title></rect><rect fill="#a1d3fa" height="4" rx="1" ry="1" width="4" x="85.60000000000001" y="46.699999999999996"><title>2024-04-13 31.02 mins</title></rect><rect fill="#76c2fc" height="4" rx="1" ry="1" width="4" x="85.60000000000001" y="52.1"><title>2024-04-14 106.35 mins</title></rect><rect fill="#7ac3fc" height="4" rx="1" ry="1" width="4" x="91.00000000000001" y="19.7"><title>2024-04-15 70.67 mins</title></rect><rect fill="#77c2fc" height="4" rx="1" ry="1" width="4" x="91.00000000000001" y="25.1"><title>2024-04-16 96.23 mins</title></rect><rect fill="#75c1fc" height="4" rx="1" ry="1" width="4" x="91.00000000000001" y="30.5"><title>2024-04-17 121.05 mins</title></rect><rect fill="#79c3fc" height="4" rx="1" ry="1" width="4" x="91.00000000000001" y="35.9"><title>2024-04-18 82.23 mins</title></rect><rect fill="#74c1fc" height="4" rx="1" ry="1" width="4" x="91.00000000000001" y="41.300000000000004"><title>2024-04-19 132.7 mins</title></rect><rect fill="#5AB6FD" height="4" rx="1" ry="1" width="4" x="91.00000000000001" y="46.699999999999996"><title>2024-04-20 171.73 mins</title></rect><rect fill="#74c0fc" height="4" rx="1" ry="1" width="4" x="91.00000000000001" y="52.1"><title>2024-04-21 135.1 mins</title></rect><rect fill="#74c1fc" height="4" rx="1" ry="1" width="4" x="96.40000000000002" y="19.7"><title>2024-04-22 132.68 mins</title></rect><rect fill="#5AB6FD" height="4" rx="1" ry="1" width="4" x="96.40000000000002" y="25.1"><title>2024-04-23 273.42 mins</title></rect><rect fill="#74c1fc" height="4" rx="1" ry="1" width="4" x="96.40000000000002" y="30.5"><title>2024-04-24 128.87 mins</title></rect><rect fill="#78c2fc" height="4" rx="1" ry="1" width="4" x="96.40000000000002" y="35.9"><title>2024-04-25 95.67 mins</title></rect><rect fill="#7ac3fc" height="4" rx="1" ry="1" width="4" x="96.40000000000002" y="41.300000000000004"><title>2024-04-26 69.88 mins</title></rect><rect fill="#7ac3fc" height="4" rx="1" ry="1" width="4" x="96.40000000000002" y="46.699999999999996"><title>2024-04-27 66.33 mins</title></rect><rect fill="#7bc4fc" height="4" rx="1" ry="1" width="4" x="96.40000000000002" y="52.1"><title>2024-04-28 58.33 mins</title></rect><rect fill="#78c2fc" height="4" rx="1" ry="1" width="4" x="101.80000000000003" y="19.7"><title>2024-04-29 88.87 mins</title></rect><rect fill="#79c3fc" height="4" rx="1" ry="1" width="4" x="101.80000000000003" y="25.1"><title>2024-04-30 80.1 mins</title></rect><rect fill="#79c3fc" height="4" rx="1" ry="1" width="4" x="101.80000000000003" y="30.5"><title>2024-05-01 82.98 mins</title></rect><rect fill="#a5d5fa" height="4" rx="1" ry="1" width="4" x="101.80000000000003" y="35.9"><title>2024-05-02 10.9 mins</title></rect><rect fill="#a5d5fa" height="4" rx="1" ry="1" width="4" x="101.80000000000003" y="41.300000000000004"><title>2024-05-03 12.48 mins</title></rect><rect fill="#a7d6fa" height="4" rx="1" ry="1" width="4" x="101.80000000000003" y="46.699999999999996"><title>2024-05-04 0.05 mins</title></rect><rect fill="#a6d6fa" height="4" rx="1" ry="1" width="4" x="101.80000000000003" y="52.1"><title>2024-05-05 3.1 mins</title></rect><text fill="#586e75" style="font-size:2.5px; font-family:Arial" x="107.20000000000003" y="18.3">May</text><rect fill="#a0d3fa" height="4" rx="1" ry="1" width="4" x="107.20000000000003" y="19.7"><title>2024-05-06 38.92 mins</title></rect><rect fill="#5AB6FD" height="4" rx="1" ry="1" width="4" x="107.20000000000003" y="25.1"><title>2024-05-07 167.03 mins</title></rect><rect fill="#74c0fc" height="4" rx="1" ry="1" width="4" x="107.20000000000003" y="30.5"><title>2024-05-08 135.68 mins</title></rect><rect fill="#5AB6FD" height="4" rx="1" ry="1" width="4" x="107.20000000000003" y="35.9"><title>2024-05-09 146.57 mins</title></rect><rect fill="#7bc4fc" height="4" rx="1" ry="1" width="4" x="107.20000000000003" y="41.300000000000004"><title>2024-05-10 59.22 mins</title></rect><rect fill="#a3d4fa" height="4" rx="1" ry="1" width="4" x="107.20000000000003" y="46.699999999999996"><title>2024-05-11 22.33 mins</title></rect><rect fill="#a1d3fa" height="4" rx="1" ry="1" width="4" x="107.20000000000003" y="52.1"><title>2024-05-12 30.93 mins</title></rect><rect fill="#a3d4fa" height="4" rx="1" ry="1" width="4" x="112.60000000000004" y="19.7"><title>2024-05-13 19.9 mins</title></rect><rect fill="#74c1fc" height="4" rx="1" ry="1" width="4" x="112.60000000000004" y="25.1"><title>2024-05-14 126.97 mins</title></rect><rect fill="#5AB6FD" height="4" rx="1" ry="1" width="4" x="112.60000000000004" y="30.5"><title>2024-05-15 169.72 mins</title></rect><rect fill="#77c2fc" height="4" rx="1" ry="1" width="4" x="112.60000000000004" y="35.9"><title>2024-05-16 103.07 mins</title></rect><rect fill="#75c1fc" height="4" rx="1" ry="1" width="4" x="112.60000000000004" y="41.300000000000004"><title>2024-05-17 120.0 mins</title></rect><rect fill="#5AB6FD" height="4" rx="1" ry="1" width="4" x="112.60000000000004" y="46.699999999999996"><title>2024-05-18 165.28 mins</title></rect><rect fill="#9dd2fa" height="4" rx="1" ry="1" width="4" x="112.60000000000004" y="52.1"><title>2024-05-19 52.78 mins</title></rect><rect fill="#76c1fc" height="4" rx="1" ry="1" width="4" x="118.00000000000004" y="19.7"><title>2024-05-20 112.05 mins</title></rect><rect fill="#74c1fc" height="4" rx="1" ry="1" width="4" x="118.00000000000004" y="25.1"><title>2024-05-21 132.42 mins</title></rect><rect fill="#78c2fc" height="4" rx="1" ry="1" width="4" x="118.00000000000004" y="30.5"><title>2024-05-22 93.23 mins</title></rect><rect fill="#7bc3fc" height="4" rx="1" ry="1" width="4" x="118.00000000000004" y="35.9"><title>2024-05-23 62.82 mins</title></rect><rect fill="#a0d3fa" height="4" rx="1" ry="1" width="4" x="118.00000000000004" y="41.300000000000004"><title>2024-05-24 39.08 mins</title></rect><rect fill="#a7d6fa" height="4" rx="1" ry="1" width="4" x="118.00000000000004" y="46.699999999999996"><title>2024-05-25 0.37 mins</title></rect><rect fill="#5AB6FD" height="4" rx="1" ry="1" width="4" x="118.00000000000004" y="52.1"><title>2024-05-26 163.78 mins</title></rect><rect fill="#5AB6FD" height="4" rx="1" ry="1" width="4" x="123.40000000000005" y="19.7"><title>2024-05-27 206.78 mins</title></rect><rect fill="#7ac3fc" height="4" rx="1" ry="1" width="4" x="123.40000000000005" y="25.1"><title>2024-05-28 74.17 mins</title></rect><rect fill="#73c0fc" height="4" rx="1" ry="1" width="4" x="123.40000000000005" y="30.5"><title>2024-05-29 136.3 mins</title></rect><rect fill="#79c3fc" height="4" rx="1" ry="1" width="4" x="123.40000000000005" y="35.9"><title>2024-05-30 79.9 mins</title></rect><rect fill="#9fd2fa" height="4" rx="1" ry="1" width="4" x="123.40000000000005" y="41.300000000000004"><title>2024-05-31 44.62 mins</title></rect><rect fill="#7bc3fc" height="4" rx="1" ry="1" width="4" x="123.40000000000005" y="46.699999999999996"><title>2024-06-01 63.8 mins</title></rect><rect fill="#7ac3fc" height="4" rx="1" ry="1" width="4" x="123.40000000000005" y="52.1"><title>2024-06-02 69.6 mins</title></rect><text fill="#586e75" style="font-size:2.5px; font-family:Arial" x="128.80000000000004" y="18.3">Jun</text><rect fill="#9dd2fa" height="4" rx="1" ry="1" width="4" x="128.80000000000004" y="19.7"><title>2024-06-03 51.05 mins</title></rect><rect fill="#7bc3fc" height="4" rx="1" ry="1" width="4" x="128.80000000000004" y="25.1"><title>2024-06-04 62.12 mins</title></rect><rect fill="#a1d4fa" height="4" rx="1" ry="1" width="4" x="128.80000000000004" y="30.5"><title>2024-06-05 30.07 mins</title></rect><rect fill="#9dd2fa" height="4" rx="1" ry="1" width="4" x="128.80000000000004" y="35.9"><title>2024-06-06 53.78 mins</title></rect><rect fill="#a2d4fa" height="4" rx="1" ry="1" width="4" x="128.80000000000004" y="41.300000000000004"><title>2024-06-07 24.68 mins</title></rect><rect fill="#a1d3fa" height="4" rx="1" ry="1" width="4" x="128.80000000000004" y="46.699999999999996"><title>2024-06-08 33.05 mins</title></rect><rect fill="#9fd3fa" height="4" rx="1" ry="1" width="4" x="128.80000000000004" y="52.1"><title>2024-06-09 40.45 mins</title></rect><rect fill="#7bc4fc" height="4" rx="1" ry="1" width="4" x="134.20000000000005" y="19.7"><title>2024-06-10 57.7 mins</title></rect><rect fill="#9ed2fa" height="4" rx="1" ry="1" width="4" x="134.20000000000005" y="25.1"><title>2024-06-11 47.37 mins</title></rect><rect fill="#7ac3fc" height="4" rx="1" ry="1" width="4" x="134.20000000000005" y="30.5"><title>2024-06-12 74.02 mins</title></rect><rect fill="#a7d6fa" height="4" rx="1" ry="1" width="4" x="134.20000000000005" y="35.9"><title>2024-06-13 2.53 mins</title></rect><rect fill="#a6d6fa" height="4" rx="1" ry="1" width="4" x="134.20000000000005" y="41.300000000000004"><title>2024-06-14 3.48 mins</title></rect><rect fill="#79c3fc" height="4" rx="1" ry="1" width="4" x="134.20000000000005" y="46.699999999999996"><title>2024-06-15 79.35 mins</title></rect><rect fill="#9dd2fa" height="4" rx="1" ry="1" width="4" x="134.20000000000005" y="52.1"><title>2024-06-16 53.05 mins</title></rect><rect fill="#77c2fc" height="4" rx="1" ry="1" width="4" x="139.60000000000005" y="19.7"><title>2024-06-17 105.55 mins</title></rect><rect fill="#7bc3fc" height="4" rx="1" ry="1" width="4" x="139.60000000000005" y="25.1"><title>2024-06-18 61.63 mins</title></rect><rect fill="#78c2fc" height="4" rx="1" ry="1" width="4" x="139.60000000000005" y="30.5"><title>2024-06-19 89.45 mins</title></rect><rect fill="#9ed2fa" height="4" rx="1" ry="1" width="4" x="139.60000000000005" y="35.9"><title>2024-06-20 45.98 mins</title></rect><rect fill="#79c3fc" height="4" rx="1" ry="1" width="4" x="139.60000000000005" y="41.300000000000004"><title>2024-06-21 81.88 mins</title></rect><rect fill="#7ac3fc" height="4" rx="1" ry="1" width="4" x="139.60000000000005" y="46.699999999999996"><title>2024-06-22 70.95 mins</title></rect><rect fill="#a3d4fa" height="4" rx="1" ry="1" width="4" x="139.60000000000005" y="52.1"><title>2024-06-23 20.58 mins</title></rect><rect fill="#a2d4fa" height="4" rx="1" ry="1" width="4" x="145.00000000000006" y="19.7"><title>2024-06-24 25.0 mins</title></rect><rect fill="#74c1fc" height="4" rx="1" ry="1" width="4" x="145.00000000000006" y="25.1"><title>2024-06-25 127.73 mins</title></rect><rect fill="#76c1fc" height="4" rx="1" ry="1" width="4" x="145.00000000000006" y="30.5"><title>2024-06-26 109.08 mins</title></rect><rect fill="#5AB6FD" height="4" rx="1" ry="1" width="4" x="145.00000000000006" y="35.9"><title>2024-06-27 152.02 mins</title></rect><rect fill="#5AB6FD" height="4" rx="1" ry="1" width="4" x="145.00000000000006" y="41.300000000000004"><title>2024-06-28 147.95 mins</title></rect><rect fill="#9dd2fa" height="4" rx="1" ry="1" width="4" x="145.00000000000006" y="46.699999999999996"><title>2024-06-29 51.3 mins</title></rect><rect fill="#a0d3fa" height="4" rx="1" ry="1" width="4" x="145.00000000000006" y="52.1"><title>2024-06-30 37.58 mins</title></rect><text fill="#586e75" style="font-size:2.5px; font-family:Arial" x="150.40000000000006" y="18.3">Jul</text><rect fill="#79c3fc" height="4" rx="1" ry="1" width="4" x="150.40000000000006" y="19.7"><title>2024-07-01 82.22 mins</title></rect><rect fill="#a0d3fa" height="4" rx="1" ry="1" width="4" x="150.40000000000006" y="25.1"><title>2024-07-02 34.4 mins</title></rect><rect fill="#76c2fc" height="4" rx="1" ry="1" width="4" x="150.40000000000006" y="30.5"><title>2024-07-03 108.33 mins</title></rect><rect fill="#a0d3fa" height="4" rx="1" ry="1" width="4" x="150.40000000000006" y="35.9"><title>2024-07-04 35.98 mins</title></rect><rect fill="#a3d4fa" height="4" rx="1" ry="1" width="4" x="150.40000000000006" y="41.300000000000004"><title>2024-07-05 20.62 mins</title></rect><rect fill="#a6d6fa" height="4" rx="1" ry="1" width="4" x="150.40000000000006" y="46.699999999999996"><title>2024-07-06 4.48 mins</title></rect><rect fill="#9fd3fa" height="4" rx="1" ry="1" width="4" x="150.40000000000006" y="52.1"><title>2024-07-07 40.0 mins</title></rect><rect fill="#7bc3fc" height="4" rx="1" ry="1" width="4" x="155.80000000000007" y="19.7"><title>2024-07-08 63.17 mins</title></rect><rect fill="#5AB6FD" height="4" rx="1" ry="1" width="4" x="155.80000000000007" y="25.1"><title>2024-07-09 146.43 mins</title></rect><rect fill="#78c2fc" height="4" rx="1" ry="1" width="4" x="155.80000000000007" y="30.5"><title>2024-07-10 89.07 mins</title></rect><rect fill="#7bc4fc" height="4" rx="1" ry="1" width="4" x="155.80000000000007" y="35.9"><title>2024-07-11 56.75 mins</title></rect><rect fill="#5AB6FD" height="4" rx="1" ry="1" width="4" x="155.80000000000007" y="41.300000000000004"><title>2024-07-12 168.55 mins</title></rect><rect fill="#74c1fc" height="4" rx="1" ry="1" width="4" x="155.80000000000007" y="46.699999999999996"><title>2024-07-13 130.02 mins</title></rect><rect fill="#75c1fc" height="4" rx="1" ry="1" width="4" x="155.80000000000007" y="52.1"><title>2024-07-14 125.65 mins</title></rect><rect fill="#79c3fc" height="4" rx="1" ry="1" width="4" x="161.20000000000007" y="19.7"><title>2024-07-15 81.35 mins</title></rect><rect fill="#75c1fc" height="4" rx="1" ry="1" width="4" x="161.20000000000007" y="25.1"><title>2024-07-16 120.32 mins</title></rect><rect fill="#5AB6FD" height="4" rx="1" ry="1" width="4" x="161.20000000000007" y="30.5"><title>2024-07-17 174.75 mins</title></rect><rect fill="#7ac3fc" height="4" rx="1" ry="1" width="4" x="161.20000000000007" y="35.9"><title>2024-07-18 68.72 mins</title></rect><rect fill="#7ac3fc" height="4" rx="1" ry="1" width="4" x="161.20000000000007" y="41.300000000000004"><title>2024-07-19 73.17 mins</title></rect><rect fill="#a5d5fa" height="4" rx="1" ry="1" width="4" x="161.20000000000007" y="46.699999999999996"><title>2024-07-20 10.7 mins</title></rect><rect fill="#EBECEE" height="4" rx="1" ry="1" width="4" x="161.20000000000007" y="52.1"><title>2024-07-21</title></rect><rect fill="#a4d5fa" height="4" rx="1" ry="1" width="4" x="166.60000000000008" y="19.7"><title>2024-07-22 14.27 mins</title></rect><rect fill="#5AB6FD" height="4" rx="1" ry="1" width="4" x="166.60000000000008" y="25.1"><title>2024-07-23 194.0 mins</title></rect><rect fill="#75c1fc" height="4" rx="1" ry="1" width="4" x="166.60000000000008" y="30.5"><title>2024-07-24 118.1 mins</title></rect><rect fill="#5AB6FD" height="4" rx="1" ry="1" width="4" x="166.60000000000008" y="35.9"><title>2024-07-25 164.73 mins</title></rect><rect fill="#7bc3fc" height="4" rx="1" ry="1" width="4" x="166.60000000000008" y="41.300000000000004"><title>2024-07-26 64.32 mins</title></rect><rect fill="#9fd3fa" height="4" rx="1" ry="1" width="4" x="166.60000000000008" y="46.699999999999996"><title>2024-07-27 41.23 mins</title></rect><rect fill="#78c2fc" height="4" rx="1" ry="1" width="4" x="166.60000000000008" y="52.1"><title>2024-07-28 89.2 mins</title></rect><rect fill="#5AB6FD" height="4" rx="1" ry="1" width="4" x="172.00000000000009" y="19.7"><title>2024-07-29 182.83 mins</title></rect><rect fill="#5AB6FD" height="4" rx="1" ry="1" width="4" x="172.00000000000009" y="25.1"><title>2024-07-30 147.52 mins</title></rect><rect fill="#5AB6FD" height="4" rx="1" ry="1" width="4" x="172.00000000000009" y="30.5"><title>2024-07-31 207.85 mins</title></rect><rect fill="#78c2fc" height="4" rx="1" ry="1" width="4" x="172.00000000000009" y="35.9"><title>2024-08-01 95.62 mins</title></rect><rect fill="#5AB6FD" height="4" rx="1" ry="1" width="4" x="172.00000000000009" y="41.300000000000004"><title>2024-08-02 163.67 mins</title></rect><rect fill="#74c0fc" height="4" rx="1" ry="1" width="4" x="172.00000000000009" y="46.699999999999996"><title>2024-08-03 135.17 mins</title></rect><rect fill="#a0d3fa" height="4" rx="1" ry="1" width="4" x="172.00000000000009" y="52.1"><title>2024-08-04 37.05 mins</title></rect><text fill="#586e75" style="font-size:2.5px; font-family:Arial" x="177.4000000000001" y="18.3">Aug</text><rect fill="#7ac3fc" height="4" rx="1" ry="1" width="4" x="177.4000000000001" y="19.7"><title>2024-08-05 75.52 mins</title></rect><rect fill="#a4d5fa" height="4" rx="1" ry="1" width="4" x="177.4000000000001" y="25.1"><title>2024-08-06 17.53 mins</title></rect><rect fill="#73c0fc" height="4" rx="1" ry="1" width="4" x="177.4000000000001" y="30.5"><title>2024-08-07 143.18 mins</title></rect><rect fill="#a2d4fa" height="4" rx="1" ry="1" width="4" x="177.4000000000001" y="35.9"><title>2024-08-08 28.18 mins</title></rect><rect fill="#a2d4fa" height="4" rx="1" ry="1" width="4" x="177.4000000000001" y="41.300000000000004"><title>2024-08-09 28.35 mins</title></rect><rect fill="#a2d4fa" height="4" rx="1" ry="1" width="4" x="177.4000000000001" y="46.699999999999996"><title>2024-08-10 26.9 mins</title></rect><rect fill="#79c3fc" height="4" rx="1" ry="1" width="4" x="177.4000000000001" y="52.1"><title>2024-08-11 82.83 mins</title></rect><rect fill="#a2d4fa" height="4" rx="1" ry="1" width="4" x="182.8000000000001" y="19.7"><title>2024-08-12 28.48 mins</title></rect><rect fill="#75c1fc" height="4" rx="1" ry="1" width="4" x="182.8000000000001" y="25.1"><title>2024-08-13 121.57 mins</title></rect><rect fill="#a3d4fa" height="4" rx="1" ry="1" width="4" x="182.8000000000001" y="30.5"><title>2024-08-14 20.7 mins</title></rect><rect fill="#75c1fc" height="4" rx="1" ry="1" width="4" x="182.8000000000001" y="35.9"><title>2024-08-15 116.97 mins</title></rect><rect fill="#a2d4fa" height="4" rx="1" ry="1" width="4" x="182.8000000000001" y="41.300000000000004"><title>2024-08-16 28.7 mins</title></rect><rect fill="#a3d4fa" height="4" rx="1" ry="1" width="4" x="182.8000000000001" y="46.699999999999996"><title>2024-08-17 21.57 mins</title></rect><rect fill="#a1d3fa" height="4" rx="1" ry="1" width="4" x="182.8000000000001" y="52.1"><title>2024-08-18 33.78 mins</title></rect><rect fill="#79c3fc" height="4" rx="1" ry="1" width="4" x="188.2000000000001" y="19.7"><title>2024-08-19 77.67 mins</title></rect><rect fill="#9dd2fa" height="4" rx="1" ry="1" width="4" x="188.2000000000001" y="25.1"><title>2024-08-20 52.42 mins</title></rect><rect fill="#78c2fc" height="4" rx="1" ry="1" width="4" x="188.2000000000001" y="30.5"><title>2024-08-21 92.63 mins</title></rect><rect fill="#7ac3fc" height="4" rx="1" ry="1" width="4" x="188.2000000000001" y="35.9"><title>2024-08-22 66.22 mins</title></rect><rect fill="#a0d3fa" height="4" rx="1" ry="1" width="4" x="188.2000000000001" y="41.300000000000004"><title>2024-08-23 38.63 mins</title></rect><rect fill="#9ed2fa" height="4" rx="1" ry="1" width="4" x="188.2000000000001" y="46.699999999999996"><title>2024-08-24 49.8 mins</title></rect><rect fill="#5AB6FD" height="4" rx="1" ry="1" width="4" x="188.2000000000001" y="52.1"><title>2024-08-25 173.17 mins</title></rect><rect fill="#9dd2fa" height="4" rx="1" ry="1" width="4" x="193.6000000000001" y="19.7"><title>2024-08-26 53.72 mins</title></rect><rect fill="#a0d3fa" height="4" rx="1" ry="1" width="4" x="193.6000000000001" y="25.1"><title>2024-08-27 34.78 mins</title></rect><rect fill="#74c1fc" height="4" rx="1" ry="1" width="4" x="193.6000000000001" y="30.5"><title>2024-08-28 127.28 mins</title></rect><rect fill="#9dd2fa" height="4" rx="1" ry="1" width="4" x="193.6000000000001" y="35.9"><title>2024-08-29 50.53 mins</title></rect><rect fill="#5AB6FD" height="4" rx="1" ry="1" width="4" x="193.6000000000001" y="41.300000000000004"><title>2024-08-30 188.52 mins</title></rect><rect fill="#75c1fc" height="4" rx="1" ry="1" width="4" x="193.6000000000001" y="46.699999999999996"><title>2024-08-31 122.52 mins</title></rect><rect fill="#a6d5fa" height="4" rx="1" ry="1" width="4" x="193.6000000000001" y="52.1"><title>2024-09-01 6.73 mins</title></rect><text fill="#586e75" style="font-size:2.5px; font-family:Arial" x="199.0000000000001" y="18.3">Sep</text><rect fill="#a3d4fa" height="4" rx="1" ry="1" width="4" x="199.0000000000001" y="19.7"><title>2024-09-02 19.88 mins</title></rect><rect fill="#77c2fc" height="4" rx="1" ry="1" width="4" x="199.0000000000001" y="25.1"><title>2024-09-03 101.75 mins</title></rect><rect fill="#a6d6fa" height="4" rx="1" ry="1" width="4" x="199.0000000000001" y="30.5"><title>2024-09-04 2.88 mins</title></rect><rect fill="#79c3fc" height="4" rx="1" ry="1" width="4" x="199.0000000000001" y="35.9"><title>2024-09-05 79.35 mins</title></rect><rect fill="#76c1fc" height="4" rx="1" ry="1" width="4" x="199.0000000000001" y="41.300000000000004"><title>2024-09-06 108.97 mins</title></rect><rect fill="#79c3fc" height="4" rx="1" ry="1" width="4" x="199.0000000000001" y="46.699999999999996"><title>2024-09-07 82.1 mins</title></rect><rect fill="#5AB6FD" height="4" rx="1" ry="1" width="4" x="199.0000000000001" y="52.1"><title>2024-09-08 145.7 mins</title></rect><rect fill="#74c0fc" height="4" rx="1" ry="1" width="4" x="204.40000000000012" y="19.7"><title>2024-09-09 133.73 mins</title></rect><rect fill="#a2d4fa" height="4" rx="1" ry="1" width="4" x="204.40000000000012" y="25.1"><title>2024-09-10 28.87 mins</title></rect><rect fill="#9fd2fa" height="4" rx="1" ry="1" width="4" x="204.40000000000012" y="30.5"><title>2024-09-11 44.6 mins</title></rect><rect fill="#a4d5fa" height="4" rx="1" ry="1" width="4" x="204.40000000000012" y="35.9"><title>2024-09-12 17.9 mins</title></rect><rect fill="#7ac3fc" height="4" rx="1" ry="1" width="4" x="204.40000000000012" y="41.300000000000004"><title>2024-09-13 75.65 mins</title></rect><rect fill="#7bc3fc" height="4" rx="1" ry="1" width="4" x="204.40000000000012" y="46.699999999999996"><title>2024-09-14 63.73 mins</title></rect><rect fill="#a3d4fa" height="4" rx="1" ry="1" width="4" x="204.40000000000012" y="52.1"><title>2024-09-15 22.08 mins</title></rect><rect fill="#a6d6fa" height="4" rx="1" ry="1" width="4" x="209.80000000000013" y="19.7"><title>2024-09-16 5.18 mins</title></rect><rect fill="#a6d6fa" height="4" rx="1" ry="1" width="4" x="209.80000000000013" y="25.1"><title>2024-09-17 3.8 mins</title></rect><rect fill="#a1d3fa" height="4" rx="1" ry="1" width="4" x="209.80000000000013" y="30.5"><title>2024-09-18 34.15 mins</title></rect><rect fill="#a7d6fa" height="4" rx="1" ry="1" width="4" x="209.80000000000013" y="35.9"><title>2024-09-19 0.08 mins</title></rect><rect fill="#a7d6fa" height="4" rx="1" ry="1" width="4" x="209.80000000000013" y="41.300000000000004"><title>2024-09-20 0.47 mins</title></rect><rect fill="#9dd2fa" height="4" rx="1" ry="1" width="4" x="209.80000000000013" y="46.699999999999996"><title>2024-09-21 50.8 mins</title></rect><rect fill="#a7d6fa" height="4" rx="1" ry="1" width="4" x="209.80000000000013" y="52.1"><title>2024-09-22 0.03 mins</title></rect><rect fill="#a7d6fa" height="4" rx="1" ry="1" width="4" x="215.20000000000013" y="19.7"><title>2024-09-23 0.68 mins</title></rect><rect fill="#7ac3fc" height="4" rx="1" ry="1" width="4" x="215.20000000000013" y="25.1"><title>2024-09-24 70.68 mins</title></rect><rect fill="#5AB6FD" height="4" rx="1" ry="1" width="4" x="215.20000000000013" y="30.5"><title>2024-09-25 153.83 mins</title></rect><rect fill="#79c3fc" height="4" rx="1" ry="1" width="4" x="215.20000000000013" y="35.9"><title>2024-09-26 84.18 mins</title></rect><rect fill="#a2d4fa" height="4" rx="1" ry="1" width="4" x="215.20000000000013" y="41.300000000000004"><title>2024-09-27 24.22 mins</title></rect><rect fill="#a5d5fa" height="4" rx="1" ry="1" width="4" x="215.20000000000013" y="46.699999999999996"><title>2024-09-28 10.48 mins</title></rect><rect fill="#a0d3fa" height="4" rx="1" ry="1" width="4" x="215.20000000000013" y="52.1"><title>2024-09-29 36.02 mins</title></rect><rect fill="#7bc4fc" height="4" rx="1" ry="1" width="4" x="220.60000000000014" y="19.7"><title>2024-09-30 57.77 mins</title></rect><rect fill="#a3d4fa" height="4" rx="1" ry="1" width="4" x="220.60000000000014" y="25.1"><title>2024-10-01 18.53 mins</title></rect><rect fill="#a7d6fa" height="4" rx="1" ry="1" width="4" x="220.60000000000014" y="30.5"><title>2024-10-02 0.07 mins</title></rect><rect fill="#a1d3fa" height="4" rx="1" ry="1" width="4" x="220.60000000000014" y="35.9"><title>2024-10-03 31.05 mins</title></rect><rect fill="#EBECEE" height="4" rx="1" ry="1" width="4" x="220.60000000000014" y="41.300000000000004"><title>2024-10-04</title></rect><rect fill="#a7d6fa" height="4" rx="1" ry="1" width="4" x="220.60000000000014" y="46.699999999999996"><title>2024-10-05 0.22 mins</title></rect><rect fill="#a3d4fa" height="4" rx="1" ry="1" width="4" x="220.60000000000014" y="52.1"><title>2024-10-06 22.1 mins</title></rect><text fill="#586e75" style="font-size:2.5px; font-family:Arial" x="226.00000000000014" y="18.3">Oct</text><rect fill="#76c1fc" height="4" rx="1" ry="1" width="4" x="226.00000000000014" y="19.7"><title>2024-10-07 113.68 mins</title></rect><rect fill="#78c2fc" height="4" rx="1" ry="1" width="4" x="226.00000000000014" y="25.1"><title>2024-10-08 92.35 mins</title></rect><rect fill="#7bc3fc" height="4" rx="1" ry="1" width="4" x="226.00000000000014" y="30.5"><title>2024-10-09 65.28 mins</title></rect><rect fill="#75c1fc" height="4" rx="1" ry="1" width="4" x="226.00000000000014" y="35.9"><title>2024-10-10 123.48 mins</title></rect><rect fill="#77c2fc" height="4" rx="1" ry="1" width="4" x="226.00000000000014" y="41.300000000000004"><title>2024-10-11 105.58 mins</title></rect><rect fill="#78c2fc" height="4" rx="1" ry="1" width="4" x="226.00000000000014" y="46.699999999999996"><title>2024-10-12 87.42 mins</title></rect><rect fill="#a7d6fa" height="4" rx="1" ry="1" width="4" x="226.00000000000014" y="52.1"><title>2024-10-13 0.05 mins</title></rect><rect fill="#a6d6fa" height="4" rx="1" ry="1" width="4" x="231.40000000000015" y="19.7"><title>2024-10-14 4.3 mins</title></rect><rect fill="#76c2fc" height="4" rx="1" ry="1" width="4" x="231.40000000000015" y="25.1"><title>2024-10-15 108.65 mins</title></rect><rect fill="#76c2fc" height="4" rx="1" ry="1" width="4" x="231.40000000000015" y="30.5"><title>2024-10-16 108.08 mins</title></rect><rect fill="#77c2fc" height="4" rx="1" ry="1" width="4" x="231.40000000000015" y="35.9"><title>2024-10-17 105.75 mins</title></rect><rect fill="#76c2fc" height="4" rx="1" ry="1" width="4" x="231.40000000000015" y="41.300000000000004"><title>2024-10-18 107.7 mins</title></rect><rect fill="#79c3fc" height="4" rx="1" ry="1" width="4" x="231.40000000000015" y="46.699999999999996"><title>2024-10-19 81.88 mins</title></rect><rect fill="#9ed2fa" height="4" rx="1" ry="1" width="4" x="231.40000000000015" y="52.1"><title>2024-10-20 46.4 mins</title></rect><rect fill="#9fd2fa" height="4" rx="1" ry="1" width="4" x="236.80000000000015" y="19.7"><title>2024-10-21 43.42 mins</title></rect><rect fill="#a1d3fa" height="4" rx="1" ry="1" width="4" x="236.80000000000015" y="25.1"><title>2024-10-22 33.2 mins</title></rect><rect fill="#7bc3fc" height="4" rx="1" ry="1" width="4" x="236.80000000000015" y="30.5"><title>2024-10-23 61.3 mins</title></rect><rect fill="#78c2fc" height="4" rx="1" ry="1" width="4" x="236.80000000000015" y="35.9"><title>2024-10-24 90.68 mins</title></rect><rect fill="#a7d6fa" height="4" rx="1" ry="1" width="4" x="236.80000000000015" y="41.300000000000004"><title>2024-10-25 0.1 mins</title></rect><rect fill="#a7d6fa" height="4" rx="1" ry="1" width="4" x="236.80000000000015" y="46.699999999999996"><title>2024-10-26 0.3 mins</title></rect><rect fill="#a4d5fa" height="4" rx="1" ry="1" width="4" x="236.80000000000015" y="52.1"><title>2024-10-27 16.82 mins</title></rect><rect fill="#a6d6fa" height="4" rx="1" ry="1" width="4" x="242.20000000000016" y="19.7"><title>2024-10-28 5.2 mins</title></rect><rect fill="#EBECEE" height="4" rx="1" ry="1" width="4" x="242.20000000000016" y="25.1"><title>2024-10-29</title></rect><rect fill="#EBECEE" height="4" rx="1" ry="1" width="4" x="242.20000000000016" y="30.5"><title>2024-10-30</title></rect><rect fill="#EBECEE" height="4" rx="1" ry="1" width="4" x="242.20000000000016" y="35.9"><title>2024-10-31</title></rect><rect fill="#EBECEE" height="4" rx="1" ry="1" width="4" x="242.20000000000016" y="41.300000000000004"><title>2024-11-01</title></rect><rect fill="#EBECEE" height="4" rx="1" ry="1" width="4" x="242.20000000000016" y="46.699999999999996"><title>2024-11-02</title></rect><rect fill="#EBECEE" height="4" rx="1" ry="1" width="4" x="242.20000000000016" y="52.1"><title>2024-11-03</title></rect><text fill="#586e75" style="font-size:2.5px; font-family:Arial" x="247.60000000000016" y="18.3">Nov</text><rect fill="#EBECEE" height="4" rx="1" ry="1" width="4" x="247.60000000000016" y="19.7"><title>2024-11-04</title></rect><rect fill="#EBECEE" height="4" rx="1" ry="1" width="4" x="247.60000000000016" y="25.1"><title>2024-11-05</title></rect><rect fill="#EBECEE" height="4" rx="1" ry="1" width="4" x="247.60000000000016" y="30.5"><title>2024-11-06</title></rect><rect fill="#EBECEE" height="4" rx="1" ry="1" width="4" x="247.60000000000016" y="35.9"><title>2024-11-07</title></rect><rect fill="#EBECEE" height="4" rx="1" ry="1" width="4" x="247.60000000000016" y="41.300000000000004"><title>2024-11-08</title></rect><rect fill="#EBECEE" height="4" rx="1" ry="1" width="4" x="247.60000000000016" y="46.699999999999996"><title>2024-11-09</title></rect><rect fill="#EBECEE" height="4" rx="1" ry="1" width="4" x="247.60000000000016" y="52.1"><title>2024-11-10</title></rect><rect fill="#EBECEE" height="4" rx="1" ry="1" width="4" x="253.00000000000017" y="19.7"><title>2024-11-11</title></rect><rect fill="#EBECEE" height="4" rx="1" ry="1" width="4" x="253.00000000000017" y="25.1"><title>2024-11-12</title></rect><rect fill="#EBECEE" height="4" rx="1" ry="1" width="4" x="253.00000000000017" y="30.5"><title>2024-11-13</title></rect><rect fill="#EBECEE" height="4" rx="1" ry="1" width="4" x="253.00000000000017" y="35.9"><title>2024-11-14</title></rect><rect fill="#EBECEE" height="4" rx="1" ry="1" width="4" x="253.00000000000017" y="41.300000000000004"><title>2024-11-15</title></rect><rect fill="#EBECEE" height="4" rx="1" ry="1" width="4" x="253.00000000000017" y="46.699999999999996"><title>2024-11-16</title></rect><rect fill="#EBECEE" height="4" rx="1" ry="1" width="4" x="253.00000000000017" y="52.1"><title>2024-11-17</title></rect><rect fill="#EBECEE" height="4" rx="1" ry="1" width="4" x="258.40000000000015" y="19.7"><title>2024-11-18</title></rect><rect fill="#EBECEE" height="4" rx="1" ry="1" width="4" x="258.40000000000015" y="25.1"><title>2024-11-19</title></rect><rect fill="#EBECEE" height="4" rx="1" ry="1" width="4" x="258.40000000000015" y="30.5"><title>2024-11-20</title></rect><rect fill="#EBECEE" height="4" rx="1" ry="1" width="4" x="258.40000000000015" y="35.9"><title>2024-11-21</title></rect><rect fill="#EBECEE" height="4" rx="1" ry="1" width="4" x="258.40000000000015" y="41.300000000000004"><title>2024-11-22</title></rect><rect fill="#EBECEE" height="4" rx="1" ry="1" width="4" x="258.40000000000015" y="46.699999999999996"><title>2024-11-23</title></rect><rect fill="#EBECEE" height="4" rx="1" ry="1" width="4" x="258.40000000000015" y="52.1"><title>2024-11-24</title></rect><rect fill="#EBECEE" height="4" rx="1" ry="1" width="4" x="263.8000000000001" y="19.7"><title>2024-11-25</title></rect><rect fill="#EBECEE" height="4" rx="1" ry="1" width="4" x="263.8000000000001" y="25.1"><title>2024-11-26</title></rect><rect fill="#EBECEE" height="4" rx="1" ry="1" width="4" x="263.8000000000001" y="30.5"><title>2024-11-27</title></rect><rect fill="#EBECEE" height="4" rx="1" ry="1" width="4" x="263.8000000000001" y="35.9"><title>2024-11-28</title></rect><rect fill="#EBECEE" height="4" rx="1" ry="1" width="4" x="263.8000000000001" y="41.300000000000004"><title>2024-11-29</title></rect><rect fill="#EBECEE" height="4" rx="1" ry="1" width="4" x="263.8000000000001" y="46.699999999999996"><title>2024-11-30</title></rect><rect fill="#EBECEE" height="4" rx="1" ry="1" width="4" x="263.8000000000001" y="52.1"><title>2024-12-01</title></rect><text fill="#586e75" style="font-size:2.5px; font-family:Arial" x="269.2000000000001" y="18.3">Dec</text><rect fill="#EBECEE" height="4" rx="1" ry="1" width="4" x="269.2000000000001" y="19.7"><title>2024-12-02</title></rect><rect fill="#EBECEE" height="4" rx="1" ry="1" width="4" x="269.2000000000001" y="25.1"><title>2024-12-03</title></rect><rect fill="#EBECEE" height="4" rx="1" ry="1" width="4" x="269.2000000000001" y="30.5"><title>2024-12-04</title></rect><rect fill="#EBECEE" height="4" rx="1" ry="1" width="4" x="269.2000000000001" y="35.9"><title>2024-12-05</title></rect><rect fill="#EBECEE" height="4" rx="1" ry="1" width="4" x="269.2000000000001" y="41.300000000000004"><title>2024-12-06</title></rect><rect fill="#EBECEE" height="4" rx="1" ry="1" width="4" x="269.2000000000001" y="46.699999999999996"><title>2024-12-07</title></rect><rect fill="#EBECEE" height="4" rx="1" ry="1" width="4" x="269.2000000000001" y="52.1"><title>2024-12-08</title></rect><rect fill="#EBECEE" height="4" rx="1" ry="1" width="4" x="274.6000000000001" y="19.7"><title>2024-12-09</title></rect><rect fill="#EBECEE" height="4" rx="1" ry="1" width="4" x="274.6000000000001" y="25.1"><title>2024-12-10</title></rect><rect fill="#EBECEE" height="4" rx="1" ry="1" width="4" x="274.6000000000001" y="30.5"><title>2024-12-11</title></rect><rect fill="#EBECEE" height="4" rx="1" ry="1" width="4" x="274.6000000000001" y="35.9"><title>2024-12-12</title></rect><rect fill="#EBECEE" height="4" rx="1" ry="1" width="4" x="274.6000000000001" y="41.300000000000004"><title>2024-12-13</title></rect><rect fill="#EBECEE" height="4" rx="1" ry="1" width="4" x="274.6000000000001" y="46.699999999999996"><title>2024-12-14</title></rect><rect fill="#EBECEE" height="4" rx="1" ry="1" width="4" x="274.6000000000001" y="52.1"><title>2024-12-15</title></rect><rect fill="#EBECEE" height="4" rx="1" ry="1" width="4" x="280.00000000000006" y="19.7"><title>2024-12-16</title></rect><rect fill="#EBECEE" height="4" rx="1" ry="1" width="4" x="280.00000000000006" y="25.1"><title>2024-12-17</title></rect><rect fill="#EBECEE" height="4" rx="1" ry="1" width="4" x="280.00000000000006" y="30.5"><title>2024-12-18</title></rect><rect fill="#EBECEE" height="4" rx="1" ry="1" width="4" x="280.00000000000006" y="35.9"><title>2024-12-19</title></rect><rect fill="#EBECEE" height="4" rx="1" ry="1" width="4" x="280.00000000000006" y="41.300000000000004"><title>2024-12-20</title></rect><rect fill="#EBECEE" height="4" rx="1" ry="1" width="4" x="280.00000000000006" y="46.699999999999996"><title>2024-12-21</title></rect><rect fill="#EBECEE" height="4" rx="1" ry="1" width="4" x="280.00000000000006" y="52.1"><title>2024-12-22</title></rect><rect fill="#EBECEE" height="4" rx="1" ry="1" width="4" x="285.40000000000003" y="19.7"><title>2024-12-23</title></rect><rect fill="#EBECEE" height="4" rx="1" ry="1" width="4" x="285.40000000000003" y="25.1"><title>2024-12-24</title></rect><rect fill="#EBECEE" height="4" rx="1" ry="1" width="4" x="285.40000000000003" y="30.5"><title>2024-12-25</title></rect><rect fill="#EBECEE" height="4" rx="1" ry="1" width="4" x="285.40000000000003" y="35.9"><title>2024-12-26</title></rect><rect fill="#EBECEE" height="4" rx="1" ry="1" width="4" x="285.40000000000003" y="41.300000000000004"><title>2024-12-27</title></rect><rect fill="#EBECEE" height="4" rx="1" ry="1" width="4" x="285.40000000000003" y="46.699999999999996"><title>2024-12-28</title></rect><rect fill="#EBECEE" height="4" rx="1" ry="1" width="4" x="285.40000000000003" y="52.1"><title>2024-12-29</title></rect><rect fill="#EBECEE" height="4" rx="1" ry="1" width="4" x="290.8" y="19.7"><title>2024-12-30</title></rect><rect fill="#EBECEE" height="4" rx="1" ry="1" width="4" x="290.8" y="25.1"><title>2024-12-31</title></rect></svg>